<?xml version="1.0" encoding="utf-8"?>
<svg version="1.1" id="Ebene_1" x="0px" y="0px" viewBox="0 0 250 250" style="enable-background:new 0 0 418 276.4;" xmlns="http://www.w3.org/2000/svg">
  <defs/>
  <style type="text/css">
	.st0{fill:none;stroke:#1D1D1B;stroke-width:3;stroke-miterlimit:10;}
	.st1{fill:#1D1D1B;}
</style>
  <rect width="249.998" height="250" style="stroke-linecap: square; stroke-width: 50px; fill: rgb(255, 255, 255);"/>
  <path class="st0"/>
  <path class="st0"/>
  <path d="M 144.533 178.728 C 140 186.937 121.443 218.663 82.275 218.663 C 36.609 218.663 18.651 183.688 18.651 148.283 C 18.651 85.342 80.052 34.202 128.711 34.202 C 147.183 34.202 161.636 43.952 172.155 43.952 C 177.371 43.952 180.62 40.701 182.673 36.682 L 186.436 37.452 L 169.161 85.599 L 165.912 85.599 C 166.596 79.955 166.938 74.31 166.853 68.667 C 166.853 47.458 144.874 37.709 128.198 37.709 C 73.553 37.709 48.068 138.277 48.068 177.786 C 48.068 204.468 56.79 215.243 83.302 215.243 C 112.463 215.243 131.704 193.607 140.086 178.812 L 144.533 178.728 Z" style=""/>
  <text style="font-family: 'Academy Engraved LET'; font-size: 176.3px; letter-spacing: -9.5px; white-space: pre;" x="139.753" y="173.653">d</text>
</svg>